<?xml version="1.0" standalone="no"?>
<!DOCTYPE svg PUBLIC "-//W3C//DTD SVG 20010904//EN"
 "http://www.w3.org/TR/2001/REC-SVG-20010904/DTD/svg10.dtd">
<svg version="1.0" xmlns="http://www.w3.org/2000/svg"
 width="1920.000000pt" height="1080.000000pt" viewBox="0 0 1920.000000 1080.000000"
 preserveAspectRatio="xMidYMid meet">

<g transform="translate(0.000000,1080.000000) scale(0.100000,-0.100000)"
fill="#000000" stroke="none">
<path d="M0 5400 l0 -5400 4269 0 4270 0 -2 35 c-1 19 -5 35 -9 35 -5 0 -8 14
-8 30 0 17 -4 30 -10 30 -5 0 -10 14 -10 30 0 17 -4 30 -10 30 -5 0 -10 11
-10 25 0 14 -4 25 -10 25 -5 0 -10 9 -10 20 0 11 -4 20 -10 20 -5 0 -10 14
-10 30 0 17 -5 30 -11 30 -5 0 -8 4 -4 9 3 5 -1 16 -9 24 -8 8 -12 17 -9 20 8
8 -26 77 -37 77 -5 0 -7 7 -4 15 3 8 -3 31 -15 50 -12 20 -21 43 -21 51 0 8
-4 14 -10 14 -5 0 -10 9 -10 19 0 11 -16 49 -35 85 -19 37 -35 77 -35 90 0 13
-7 27 -16 30 -8 3 -12 10 -9 16 7 12 -16 70 -27 70 -5 0 -8 14 -8 30 0 17 -4
30 -10 30 -5 0 -10 14 -10 31 0 16 -4 28 -9 25 -5 -3 -11 3 -14 13 -3 15 4 21
37 31 74 22 210 98 294 166 149 119 312 333 432 567 30 59 58 107 61 107 4 0
30 -16 59 -35 l51 -35 29 63 c33 71 32 73 -47 108 -31 13 -41 23 -37 34 8 19
3 19 55 -5 57 -26 76 -25 85 3 13 43 158 362 176 389 10 15 25 44 32 65 16 45
98 210 118 236 8 11 20 16 30 12 19 -7 68 -112 68 -145 0 -22 35 -89 53 -102
6 -3 8 -47 4 -107 -3 -65 -2 -101 5 -101 6 0 7 -11 3 -27 -3 -14 -7 -56 -7
-92 -1 -50 -3 -59 -8 -36 -7 29 -8 29 -10 5 -2 -14 -4 -41 -5 -60 -9 -156 -10
-160 -22 -147 -7 7 -15 26 -17 42 -4 30 -10 48 -54 165 -27 73 -39 101 -72
177 l-23 52 -24 -25 c-12 -14 -23 -33 -23 -44 0 -10 19 -67 42 -126 l41 -107
-13 -61 c-19 -86 -18 -110 2 -114 15 -3 17 3 14 46 -7 81 8 80 44 -2 28 -64
39 -79 74 -99 44 -24 54 -49 21 -55 -11 -2 -24 -8 -30 -14 -7 -6 -5 -8 5 -6
12 2 16 -9 18 -49 l3 -51 -36 10 c-37 12 -35 8 -39 96 -1 12 6 16 24 15 15 -2
1 9 -37 26 -104 49 -99 50 -112 -19 -7 -33 -14 -60 -16 -60 -2 0 -28 10 -57
21 -87 35 -193 70 -183 60 16 -14 312 -127 398 -152 80 -23 79 -22 91 -89 3
-14 12 -58 21 -97 8 -40 14 -76 13 -80 -1 -5 2 -28 5 -53 17 -111 38 -550 44
-927 l6 -413 599 0 c329 0 598 4 598 8 0 5 -11 22 -25 38 -13 15 -23 30 -21
31 2 2 -10 18 -25 34 -16 17 -27 35 -24 39 5 8 -54 101 -87 140 -7 8 -12 17
-10 20 1 3 -5 13 -13 23 -8 9 -15 20 -15 23 0 3 -25 40 -55 81 -30 42 -55 80
-55 86 0 5 -10 19 -22 31 -13 12 -24 28 -26 36 -2 7 -29 52 -61 99 -32 47 -82
123 -111 169 -29 45 -54 82 -57 82 -2 0 -1 -5 3 -12 4 -7 3 -8 -4 -4 -6 4 -9
13 -6 20 3 8 -4 20 -15 28 -12 8 -18 18 -14 21 3 4 1 7 -5 7 -7 0 -11 3 -9 8
1 4 -8 17 -21 30 -12 12 -20 28 -16 34 5 7 3 8 -6 3 -10 -6 -12 -4 -7 9 4 10
3 15 -3 11 -13 -8 -31 30 -24 52 5 15 4 15 -5 3 -9 -13 -11 -13 -12 0 -1 8 -1
21 0 29 2 7 -2 10 -8 7 -5 -4 -12 -2 -16 4 -3 5 -1 10 5 10 8 0 8 6 0 20 -6
11 -15 18 -21 15 -9 -6 -13 8 -10 34 2 8 -2 10 -10 6 -7 -5 -10 -3 -7 6 7 21
-70 171 -84 163 -7 -4 -8 -3 -4 5 4 7 -2 32 -13 56 -12 25 -21 50 -21 55 0 6
-4 8 -10 5 -6 -3 -7 1 -4 9 3 8 -1 28 -9 44 l-14 29 71 1 c62 1 212 18 356 41
43 6 45 8 42 38 -3 30 1 34 70 74 39 23 136 88 215 145 78 56 167 116 198 134
40 23 54 37 51 48 -2 10 -7 38 -11 65 -5 37 -3 47 8 47 21 0 144 91 214 158
l61 59 26 -66 c15 -36 29 -76 31 -89 8 -42 16 -62 27 -62 5 0 8 -7 4 -15 -7
-19 54 -176 65 -169 5 3 6 -1 4 -9 -3 -7 8 -51 24 -98 16 -46 35 -104 41 -129
33 -127 42 -153 52 -139 7 10 8 8 3 -8 -7 -27 4 -75 16 -67 6 3 7 -6 3 -22 -4
-15 -3 -25 2 -21 5 3 9 -11 10 -30 0 -19 5 -38 10 -41 5 -4 9 -18 10 -32 1
-14 13 -69 27 -122 14 -53 29 -118 32 -145 3 -28 12 -53 22 -61 9 -6 12 -12 5
-12 -17 0 -15 -27 3 -34 8 -3 15 -11 15 -18 0 -9 -3 -8 -10 2 -8 12 -10 11
-10 -6 0 -12 7 -24 15 -28 8 -3 15 -11 15 -18 0 -9 -3 -8 -10 2 -8 13 -10 12
-10 -4 0 -10 8 -25 18 -33 9 -8 11 -11 3 -7 -11 5 -13 2 -8 -17 4 -13 7 -31 7
-39 0 -13 1 -13 11 0 7 11 8 4 4 -25 -5 -31 -4 -37 5 -25 9 12 10 8 5 -19 -6
-26 -4 -32 6 -26 9 6 11 3 6 -9 -9 -23 3 -97 14 -90 5 3 6 -2 3 -11 -4 -8 8
-77 26 -153 18 -75 32 -139 32 -142 0 -3 6 -9 14 -13 8 -4 14 -13 14 -18 0 -6
-4 -7 -10 -4 -5 3 -10 2 -10 -3 0 -6 6 -12 14 -15 7 -3 16 -15 19 -26 3 -12 1
-19 -4 -15 -10 6 -12 -7 -3 -30 3 -9 11 -13 16 -10 6 4 7 -2 3 -16 -5 -16 -4
-20 4 -15 8 5 10 -1 6 -18 -4 -16 -1 -30 10 -40 9 -9 13 -21 10 -27 -3 -5 -2
-10 3 -10 6 0 10 -6 9 -12 -1 -35 4 -49 15 -42 7 5 8 3 3 -5 -4 -7 0 -32 10
-57 l17 -44 3644 0 3644 0 0 5400 0 5400 -9600 0 -9600 0 0 -5400z m9264 5303
c-10 -21 -21 -40 -24 -43 -3 -3 -6 -12 -8 -20 -2 -8 -16 -35 -32 -60 -16 -25
-36 -61 -44 -80 -8 -19 -15 -29 -16 -22 0 7 9 34 21 59 11 25 18 47 15 50 -3
3 9 22 26 41 17 20 40 56 50 80 11 24 22 41 25 38 4 -3 -2 -23 -13 -43z m-114
-146 c0 -2 -12 -14 -27 -28 l-28 -24 24 28 c23 25 31 32 31 24z m-50 -60 c0
-2 -10 -12 -22 -23 l-23 -19 19 23 c18 21 26 27 26 19z m37 -59 c-3 -8 -6 -5
-6 6 -1 11 2 17 5 13 3 -3 4 -12 1 -19z m68 -37 l-6 -29 43 5 c24 2 66 11 95
19 56 15 113 19 113 6 0 -11 -36 -80 -50 -97 -10 -12 -10 -19 1 -32 7 -10 9
-15 4 -10 -8 7 -55 -29 -55 -44 0 -4 17 -10 38 -15 22 -4 30 -9 20 -11 -22 -5
-22 -3 -2 -42 9 -18 14 -34 13 -36 -2 -2 -29 2 -59 9 -62 14 -109 8 -182 -25
-44 -21 -46 -23 -33 -43 14 -21 13 -21 -24 -18 -39 4 -39 4 -30 35 5 18 8 61
8 97 l-1 65 -9 -65 c-15 -116 -29 -194 -45 -242 -25 -77 -33 -64 -13 20 11 42
31 149 45 237 28 167 46 238 39 150 -3 -27 -2 -41 1 -30 4 11 24 39 45 64 22
24 39 48 39 52 0 5 3 9 6 9 3 0 3 -13 -1 -29z m428 -414 c-92 -117 -208 -277
-247 -340 -26 -42 -50 -77 -53 -77 -6 0 36 73 95 165 43 67 208 275 219 275 2
0 -4 -11 -14 -23z m224 -79 c-3 -8 -6 -5 -6 6 -1 11 2 17 5 13 3 -3 4 -12 1
-19z m-1110 -10 c-3 -8 -6 -5 -6 6 -1 11 2 17 5 13 3 -3 4 -12 1 -19z m478
-38 c-7 -48 -6 -50 18 -50 19 0 28 8 37 33 7 18 14 26 17 19 7 -18 -28 -143
-38 -136 -5 3 -6 16 -3 30 5 21 3 24 -19 24 -22 0 -27 -8 -47 -72 -12 -40 -23
-77 -25 -83 -8 -23 -4 35 5 95 11 66 48 190 57 190 3 0 2 -22 -2 -50z m622 -7
c-3 -10 -5 -4 -5 12 0 17 2 24 5 18 2 -7 2 -21 0 -30z m-731 -89 c-14 -49 -25
-83 -25 -75 -1 20 40 173 45 168 3 -2 -7 -44 -20 -93z m-410 21 c-20 -47 -20
-55 -1 -55 8 0 15 -4 15 -10 0 -5 -6 -10 -13 -10 -16 0 -51 -37 -60 -62 -4
-10 -11 -18 -16 -18 -13 0 23 102 55 157 30 52 42 51 20 -2z m1119 -45 c-10
-44 -20 -78 -23 -76 -2 3 4 41 14 86 9 44 19 78 22 75 3 -3 -3 -41 -13 -85z
m58 -142 c24 -520 22 -624 -19 -778 -27 -98 -26 -97 -15 -80 9 12 11 11 11 -6
0 -25 -35 -200 -46 -227 -12 -32 72 17 139 81 55 54 58 55 51 27 -4 -17 -11
-41 -16 -54 -8 -21 -7 -22 7 -11 33 27 165 343 165 395 0 8 5 17 10 20 9 6 6
-155 -5 -240 -1 -11 -3 -25 -4 -30 0 -6 -16 -16 -34 -23 -42 -15 -79 -54 -82
-85 -2 -14 -8 -34 -14 -45 -6 -11 -11 -29 -10 -39 0 -15 2 -15 9 3 10 27 66
67 80 59 14 -9 12 -26 -5 -45 -10 -11 -12 -24 -6 -45 l7 -30 18 27 c19 29 28
80 16 88 -5 3 -2 16 5 30 14 26 13 27 30 -25 8 -26 25 -16 25 16 0 38 14 30
40 -21 24 -48 26 -97 3 -130 l-17 -25 23 20 c51 44 78 108 59 140 -3 6 -11 27
-18 48 -12 39 -58 77 -92 77 -26 0 -22 29 5 40 18 7 19 9 3 9 -14 1 -17 6 -13
24 4 12 9 42 13 67 4 25 11 50 15 56 5 6 7 13 5 15 -3 2 4 65 15 139 10 74 21
185 23 245 3 83 2 93 -3 40 l-7 -70 -2 95 c-2 81 -18 228 -37 327 -2 15 6 -3
20 -42 13 -38 25 -90 25 -115 1 -25 6 -56 11 -70 6 -17 7 4 5 63 -2 48 0 87 4
87 11 0 37 -132 65 -330 13 -96 29 -199 35 -229 5 -29 10 -96 10 -148 l0 -94
-22 12 -23 12 23 -25 c19 -22 22 -35 22 -117 0 -79 -3 -99 -22 -130 -12 -20
-26 -37 -30 -39 -4 -2 -8 -10 -8 -18 0 -7 -18 -52 -39 -98 -22 -47 -42 -100
-45 -118 -4 -18 6 -2 22 37 16 39 42 93 59 120 16 28 33 63 37 79 14 57 18 15
6 -76 -13 -103 -29 -168 -41 -168 -5 0 -8 -11 -7 -25 1 -14 5 -25 9 -25 9 0
54 60 86 113 l25 42 -7 -62 c-3 -35 -4 -63 -1 -63 9 0 43 72 62 133 10 31 21
57 24 57 6 0 60 -211 60 -234 0 -4 -42 -57 -94 -117 -52 -59 -99 -116 -104
-126 -10 -16 -12 -16 -29 -1 -10 8 -33 19 -52 23 -18 4 -51 23 -73 43 -41 37
-43 47 -23 107 4 11 -7 -5 -25 -35 -65 -115 -159 -187 -423 -324 -86 -45 -135
-65 -148 -61 -27 9 -24 -4 4 -14 16 -7 33 -3 64 15 23 13 44 20 47 16 10 -17
8 -197 -3 -224 -12 -31 -64 -67 -89 -62 -9 1 -59 10 -110 20 -51 9 -95 20 -98
25 -3 5 -11 46 -19 91 -8 46 -22 108 -30 138 -9 30 -51 195 -94 365 -79 315
-100 430 -102 546 0 35 -4 89 -8 118 -7 50 -6 57 15 78 29 29 54 31 28 2 -20
-22 -26 -98 -11 -151 8 -32 60 -94 91 -109 11 -6 4 3 -16 20 -41 35 -78 115
-61 132 15 15 132 20 171 8 25 -8 32 -16 32 -37 1 -26 1 -26 16 8 14 33 14 35
-8 52 -20 15 -21 19 -8 28 8 5 26 10 38 10 l24 0 -21 36 c-27 46 -27 48 12 28
51 -27 97 -65 123 -103 l24 -36 0 49 c0 41 -5 52 -33 80 -18 17 -45 40 -60 51
l-29 20 41 83 c28 55 47 82 59 82 12 0 14 2 4 8 -9 7 -4 27 24 88 20 43 67
153 104 244 102 248 133 320 140 320 4 0 10 -64 13 -142z m53 45 c2 -12 15
-35 29 -51 24 -29 25 -31 6 -37 -20 -6 -24 -20 -50 -160 -7 -38 -9 0 -9 150 0
193 2 203 24 98z m738 54 c-2 -7 -30 -26 -61 -41 -43 -21 -58 -24 -64 -14 -6
9 4 15 34 23 24 6 54 18 67 28 29 20 31 21 24 4z m-106 -132 c27 -55 53 -111
56 -125 l6 -25 -12 25 c-6 14 -36 75 -66 135 -30 61 -49 106 -44 100 6 -5 33
-55 60 -110z m-1481 73 c-3 -7 -5 -2 -5 12 0 14 2 19 5 13 2 -7 2 -19 0 -25z
m1563 -9 c0 -52 59 -133 106 -145 14 -4 28 -14 32 -23 3 -9 14 -25 24 -35 10
-11 18 -26 18 -33 0 -7 5 -13 10 -13 6 0 10 -7 10 -15 0 -20 -28 -19 -76 1
-57 24 -95 34 -89 23 4 -5 2 -16 -3 -25 -7 -13 -11 -11 -20 13 -6 15 -14 42
-18 58 -4 17 -24 64 -45 106 l-38 76 32 15 c45 22 57 21 57 -3z m-540 -61 c0
-72 48 -34 51 40 1 15 5 5 9 -23 8 -55 2 -152 -11 -175 -5 -10 -8 1 -9 32 0
34 -5 50 -17 57 -14 7 -20 4 -30 -17 -10 -23 -11 -15 -12 63 0 62 2 85 9 75 5
-8 10 -32 10 -52z m260 10 c18 -82 40 -138 55 -138 7 0 15 6 18 13 8 22 16 3
21 -53 5 -46 4 -51 -5 -27 -6 15 -15 24 -21 21 -6 -4 -14 0 -19 7 -10 15 -10
14 -13 -46 -6 -104 -10 -96 -31 65 -13 96 -24 183 -24 193 -2 33 7 17 19 -35z
m-1744 17 c-3 -9 -15 -47 -27 -86 -12 -38 -23 -69 -25 -67 -2 2 6 39 16 82 11
43 20 80 20 82 0 2 5 4 11 4 6 0 8 -7 5 -15z m451 -22 c-3 -10 -5 -4 -5 12 0
17 2 24 5 18 2 -7 2 -21 0 -30z m938 -13 c3 -5 1 -10 -4 -10 -6 0 -11 5 -11
10 0 6 2 10 4 10 3 0 8 -4 11 -10z m510 -149 l5 -66 -14 75 c-8 41 -17 91 -20
110 -4 31 -3 30 9 -9 8 -25 17 -74 20 -110z m-2074 32 c-12 -20 -14 -14 -5 12
4 9 9 14 11 11 3 -2 0 -13 -6 -23z m-25 -69 c-8 -21 -15 -34 -15 -28 -1 15 20
76 25 71 2 -2 -2 -21 -10 -43z m261 -46 c-3 -8 -6 -5 -6 6 -1 11 2 17 5 13 3
-3 4 -12 1 -19z m1850 -40 c-2 -13 -4 -5 -4 17 -1 22 1 32 4 23 2 -10 2 -28 0
-40z m-2133 8 c-3 -15 -8 -25 -11 -23 -2 3 -1 17 3 31 3 15 8 25 11 23 2 -3 1
-17 -3 -31z m273 -18 c-3 -7 -5 -2 -5 12 0 14 2 19 5 13 2 -7 2 -19 0 -25z
m-13 -72 c-3 -21 -8 -35 -11 -32 -2 2 -1 20 3 40 3 21 8 35 11 32 2 -2 1 -20
-3 -40z m2046 -356 c16 -58 34 -127 39 -153 16 -87 -5 -35 -39 93 -17 69 -54
197 -81 284 -27 88 -49 165 -48 170 1 14 91 -261 129 -394z m-2337 345 c-3 -9
-8 -14 -10 -11 -3 3 -2 9 2 15 9 16 15 13 8 -4z m267 -95 l-11 -25 6 25 c2 14
5 34 6 45 2 19 2 19 6 0 2 -12 -1 -32 -7 -45z m-289 -6 c-5 -16 -10 -21 -10
-12 -1 18 10 51 15 45 2 -1 -1 -16 -5 -33z m2407 -59 c-3 -3 -9 2 -12 12 -6
14 -5 15 5 6 7 -7 10 -15 7 -18z m-2431 -37 c-3 -8 -6 -5 -6 6 -1 11 2 17 5
13 3 -3 4 -12 1 -19z m1083 -183 c0 -21 -24 -45 -44 -45 -11 0 -6 26 10 48 20
29 34 28 34 -3z m1457 -17 c-3 -8 -6 -5 -6 6 -1 11 2 17 5 13 3 -3 4 -12 1
-19z m-2134 -165 c4 -59 9 -133 12 -163 6 -51 5 -54 -9 -35 -24 28 -36 80 -43
172 -6 79 8 150 27 138 4 -2 10 -53 13 -112z m2197 65 c-1 -8 -6 -6 -15 6 -20
26 -19 42 0 22 8 -8 15 -21 15 -28z m28 -63 c-3 -3 -9 2 -12 12 -6 14 -5 15 5
6 7 -7 10 -15 7 -18z m-1793 -268 c14 -62 43 -173 64 -247 80 -281 159 -606
149 -616 -4 -3 -120 46 -139 60 -9 6 -36 29 -59 50 l-43 39 -13 121 c-7 67
-13 156 -14 199 l0 79 48 -40 c26 -21 61 -47 77 -57 l30 -17 -30 27 c-16 15
-54 50 -82 77 l-53 51 0 207 c0 114 3 236 7 271 l7 64 13 -78 c7 -43 24 -129
38 -190z m-984 186 c-12 -20 -14 -14 -5 12 4 9 9 14 11 11 3 -2 0 -13 -6 -23z
m2847 -31 c6 -12 12 -25 12 -29 0 -11 -14 8 -40 52 -18 32 -19 36 -4 19 10
-11 25 -30 32 -42z m50 -83 c30 -57 23 -59 -11 -4 -14 25 -23 45 -19 45 5 0
18 -19 30 -41z m-2281 -61 c-3 -7 -5 -2 -5 12 0 14 2 19 5 13 2 -7 2 -19 0
-25z m2243 -35 c0 -25 -18 -13 -29 18 -6 18 -11 35 -11 38 1 11 40 -44 40 -56z
m88 2 c-3 -3 -9 2 -12 12 -6 14 -5 15 5 6 7 -7 10 -15 7 -18z m-2321 -17 c-3
-7 -5 -2 -5 12 0 14 2 19 5 13 2 -7 2 -19 0 -25z m2020 10 c-3 -8 -6 -5 -6 6
-1 11 2 17 5 13 3 -3 4 -12 1 -19z m188 -58 c15 -30 31 -63 36 -72 5 -10 9
-26 9 -35 -1 -10 -11 7 -24 37 -12 30 -33 75 -46 100 -12 25 -18 41 -12 35 5
-5 22 -35 37 -65z m-2198 -2 c-3 -8 -6 -5 -6 6 -1 11 2 17 5 13 3 -3 4 -12 1
-19z m2040 -100 c-3 -8 -6 -5 -6 6 -1 11 2 17 5 13 3 -3 4 -12 1 -19z m221
-59 c-3 -8 -7 -3 -11 10 -4 17 -3 21 5 13 5 -5 8 -16 6 -23z m-201 -31 c-3 -8
-6 -5 -6 6 -1 11 2 17 5 13 3 -3 4 -12 1 -19z m-2064 -123 c-3 -38 -14 -105
-24 -148 -21 -84 -79 -250 -85 -244 -2 2 8 37 22 78 44 129 74 270 75 354 1
55 3 72 9 55 4 -14 6 -56 3 -95z m1364 -2 c-2 -16 -4 -5 -4 22 0 28 2 40 4 28
2 -13 2 -35 0 -50z m-1306 -148 c6 -27 22 -104 35 -170 14 -66 45 -190 70
-275 l46 -155 -49 -42 c-64 -57 -184 -140 -227 -158 -20 -8 -47 -15 -62 -15
-26 0 -26 0 -19 60 6 49 2 82 -20 171 l-28 110 46 98 c92 195 157 392 157 481
0 19 3 46 7 60 6 20 10 11 20 -45 7 -38 18 -92 24 -120z m-281 69 c-11 -83
-45 -251 -57 -284 -3 -8 -14 23 -23 69 -20 94 -22 84 47 234 20 42 38 75 41
73 2 -3 -1 -44 -8 -92z m2327 34 c-3 -8 -6 -5 -6 6 -1 11 2 17 5 13 3 -3 4
-12 1 -19z m-848 -120 c7 -60 23 -152 35 -204 l23 -94 -58 -54 c-53 -50 -58
-58 -64 -110 -7 -57 4 -117 13 -66 2 14 11 33 19 42 8 9 12 22 8 27 -3 6 -4
11 -2 11 7 0 102 -167 146 -256 85 -173 166 -420 191 -581 13 -89 8 -133 -16
-133 -8 0 -12 -5 -9 -10 4 -6 10 -8 15 -5 10 6 20 -30 20 -77 l0 -36 -76 31
c-42 18 -76 36 -76 41 0 13 123 87 133 80 13 -8 11 0 -10 48 -10 24 -23 56
-28 73 l-8 30 -72 -3 c-39 -2 -73 0 -76 6 -4 5 7 19 23 30 l29 22 27 -25 c15
-14 32 -25 38 -25 6 0 -5 13 -24 28 -70 54 -76 64 -89 147 -7 44 -24 121 -37
170 -13 50 -24 110 -24 134 0 71 -11 40 -16 -45 -3 -43 -6 -79 -7 -80 -1 -1
-23 -5 -49 -9 -36 -6 -49 -4 -52 6 -13 46 -39 110 -42 106 -2 -2 3 -23 11 -47
20 -57 20 -60 -14 -60 -23 0 -39 -11 -72 -50 -23 -27 -45 -50 -48 -50 -4 0 -5
18 -3 40 3 31 8 40 23 40 10 0 19 5 19 10 0 6 -13 10 -28 10 -15 0 -33 5 -40
12 -6 6 -22 12 -35 14 -13 1 -41 10 -63 19 -35 15 -37 18 -19 26 14 6 9 7 -16
3 -45 -7 -59 11 -89 125 -12 45 -24 80 -27 78 -2 -3 8 -46 22 -97 14 -51 24
-94 22 -96 -6 -6 -103 45 -119 64 -20 22 -35 242 -17 242 6 0 29 -17 50 -39
22 -21 39 -34 39 -29 0 6 -25 34 -55 63 -30 29 -55 59 -55 67 0 7 -3 23 -6 34
-6 21 -5 22 51 9 31 -8 73 -15 93 -17 32 -3 37 0 40 20 5 31 25 22 33 -14 4
-16 7 -21 8 -11 0 9 6 17 12 17 6 0 24 9 40 21 l29 20 0 -26 c0 -26 118 -250
127 -242 2 3 -22 51 -54 108 l-58 104 -3 160 c-5 213 -4 216 59 245 27 13 86
47 131 76 44 28 88 49 97 47 13 -3 20 -27 30 -115z m118 50 c-3 -7 -5 -2 -5
12 0 14 2 19 5 13 2 -7 2 -19 0 -25z m126 -15 c41 -13 47 -18 47 -43 0 -17
-18 -55 -45 -95 -25 -37 -37 -61 -28 -54 9 8 29 34 45 59 l29 45 -7 -140 c-7
-157 9 -297 50 -418 l23 -68 -57 56 c-50 49 -60 67 -78 129 -25 86 -50 205
-56 266 -2 25 -9 83 -15 130 -21 170 -21 162 13 155 17 -4 52 -13 79 -22z
m-1335 -113 c0 -8 -8 8 -18 35 -10 28 -18 57 -18 65 0 8 8 -7 18 -35 10 -27
18 -57 18 -65z m1209 88 c-3 -8 -6 -5 -6 6 -1 11 2 17 5 13 3 -3 4 -12 1 -19z
m771 -68 c0 -22 -1 -22 -8 5 -4 17 -8 39 -8 50 0 16 2 15 8 -5 4 -14 8 -36 8
-50z m-101 28 c-3 -8 -6 -5 -6 6 -1 11 2 17 5 13 3 -3 4 -12 1 -19z m310 -30
c-3 -8 -6 -5 -6 6 -1 11 2 17 5 13 3 -3 4 -12 1 -19z m-262 -177 c8 -46 15
-102 14 -125 -1 -32 -5 -22 -18 46 -9 48 -21 92 -26 98 -8 7 -23 4 -48 -9 -30
-15 -37 -16 -37 -5 0 8 8 17 18 20 67 22 73 27 68 51 -4 12 -8 44 -11 71 l-4
47 14 -55 c8 -30 22 -93 30 -139z m62 117 c-3 -7 -5 -2 -5 12 0 14 2 19 5 13
2 -7 2 -19 0 -25z m-1951 -85 c-5 -5 -36 86 -35 101 0 6 9 -13 20 -43 10 -30
17 -56 15 -58z m2161 60 c-3 -10 -5 -2 -5 17 0 19 2 27 5 18 2 -10 2 -26 0
-35z m10 -130 c-2 -21 -4 -4 -4 37 0 41 2 58 4 38 2 -21 2 -55 0 -75z m-1907
-20 c80 -77 121 -124 119 -135 -3 -13 -16 -8 -64 29 -45 33 -51 36 -25 11 20
-18 50 -44 68 -58 l33 -25 6 -114 6 -114 -99 76 c-95 74 -99 78 -115 136 l-17
59 34 33 c19 18 34 37 34 41 0 5 -14 -8 -32 -27 -38 -44 -40 -41 -62 75 -9 47
-19 95 -22 108 -2 12 0 22 5 22 5 0 64 -53 131 -117z m-230 15 c12 -35 42
-102 66 -150 24 -48 44 -91 43 -95 -1 -25 -139 276 -139 304 0 15 11 -7 30
-59z m1177 -10 c-3 -8 -6 -5 -6 6 -1 11 2 17 5 13 3 -3 4 -12 1 -19z m-74 -81
c9 -30 17 -57 17 -61 0 -4 -20 7 -45 25 -25 18 -45 35 -45 38 0 7 42 51 50 51
3 0 14 -24 23 -53z m1031 -260 c-9 -59 -19 -106 -21 -103 -2 2 3 54 11 115 9
62 17 155 18 209 l2 97 4 -105 c2 -67 -3 -144 -14 -213z m-1794 256 c0 -19 -6
-16 -24 12 -17 25 -16 25 4 13 11 -7 20 -18 20 -25z m877 -95 c-3 -8 -6 -5 -6
6 -1 11 2 17 5 13 3 -3 4 -12 1 -19z m770 -120 c-3 -7 -5 -2 -5 12 0 14 2 19
5 13 2 -7 2 -19 0 -25z m-717 -36 c0 -7 15 -47 34 -88 19 -41 33 -74 30 -74
-8 0 -72 142 -78 175 -5 22 -4 26 4 15 5 -8 10 -21 10 -28z m-1244 -102 c56
-142 58 -140 -48 -63 -37 26 -81 56 -97 65 -17 9 -31 21 -30 25 0 8 110 101
119 102 3 0 28 -58 56 -129z m139 100 c9 -16 13 -30 11 -30 -3 0 -12 14 -21
30 -9 17 -13 30 -11 30 3 0 12 -13 21 -30z m-141 -40 c5 -17 4 -20 -2 -10 -5
8 -13 26 -16 40 -5 17 -4 20 2 10 5 -8 13 -26 16 -40z m1985 -109 c2 -88 -6
-54 -12 54 -3 69 -3 85 3 50 5 -27 9 -74 9 -104z m-566 32 c-14 -38 -28 -76
-30 -85 -3 -10 -9 -16 -13 -13 -10 6 49 165 61 165 4 0 -4 -30 -18 -67z
m-1393 12 c0 -5 -5 -3 -10 5 -5 8 -10 20 -10 25 0 6 5 3 10 -5 5 -8 10 -19 10
-25z m257 -16 c56 -37 63 -45 62 -73 -1 -53 -13 -101 -27 -104 -8 -1 -11 2 -7
8 6 9 -50 122 -93 188 -21 32 -7 28 65 -19z m216 -61 c67 -23 80 -40 47 -60
-18 -12 -149 59 -150 81 0 15 1 15 103 -21z m-1672 -1 c-10 -9 -11 -8 -5 6 3
10 9 15 12 12 3 -3 0 -11 -7 -18z m1784 -124 c61 -33 116 -62 122 -64 21 -7
183 -191 204 -231 21 -42 60 -160 55 -166 -2 -2 -125 58 -272 132 -259 130
-270 137 -299 183 -42 67 -46 88 -34 180 l12 82 51 -28 c28 -16 101 -55 161
-88z m35 72 c25 -13 30 -22 30 -50 0 -19 -2 -35 -5 -35 -6 0 -87 40 -94 46 -7
6 21 54 31 54 5 0 22 -7 38 -15z m684 -142 c-20 -65 -39 -110 -42 -100 -2 9
11 61 29 115 35 107 39 116 46 108 3 -3 -12 -58 -33 -123z m663 60 c-2 -16 -4
-5 -4 22 0 28 2 40 4 28 2 -13 2 -35 0 -50z m-940 35 c-3 -8 -6 -5 -6 6 -1 11
2 17 5 13 3 -3 4 -12 1 -19z m-109 -6 c19 -6 30 -7 27 -1 -4 5 5 9 19 9 31 0
72 -37 80 -72 6 -25 2 -30 -45 -54 l-52 -26 -85 21 c-46 11 -88 18 -93 15 -25
-15 5 49 42 91 34 38 37 39 107 17z m-1743 -127 c141 -9 175 -16 175 -32 0
-10 -9 -13 -32 -9 -18 3 -86 10 -150 17 -91 9 -118 15 -118 26 0 9 7 12 18 9
9 -2 58 -7 107 -11z m1885 -4 c0 -12 -56 -34 -72 -28 -7 2 2 11 22 20 42 18
50 20 50 8z m-140 -25 c0 -2 -17 -16 -37 -31 l-38 -28 29 31 c26 28 46 40 46
28z m-1057 -23 c121 -4 170 -10 178 -20 9 -11 -1 -13 -57 -13 -38 0 -98 4
-134 9 -36 5 -107 12 -157 16 -58 5 -91 11 -87 17 4 6 24 8 48 4 22 -3 116 -9
209 -13z m1097 0 c0 -10 -63 -54 -68 -48 -5 5 50 54 61 55 4 0 7 -3 7 -7z
m1730 -23 c-12 -23 -55 -54 -68 -48 -5 1 -3 17 4 33 8 18 13 23 14 13 0 -24
13 -23 35 2 23 25 29 25 15 0z m-1333 -227 l1 -238 -10 214 c-8 181 -7 261 5
261 1 0 3 -107 4 -237z m-861 52 c61 -126 105 -253 104 -305 -1 -14 -12 16
-24 65 -24 90 -90 250 -147 355 -16 30 -22 46 -13 35 9 -11 45 -78 80 -150z
m614 117 c0 -4 -16 -18 -36 -32 -28 -19 -48 -24 -91 -23 -50 1 -57 3 -73 31
l-19 31 32 3 c50 5 187 -3 187 -10z m-815 -196 c3 -45 2 -103 -3 -131 l-10
-50 -1 66 c-1 45 -6 70 -16 79 -11 9 -12 17 -5 30 6 10 10 47 11 82 1 52 2 58
9 34 5 -16 12 -66 15 -110z m-1723 110 c7 4 8 2 4 -4 -4 -6 -13 -9 -21 -6 -8
4 -12 11 -8 17 5 8 8 7 11 -1 2 -7 9 -9 14 -6z m2528 0 c0 -2 -7 -6 -15 -10
-8 -3 -15 -1 -15 4 0 6 7 10 15 10 8 0 15 -2 15 -4z m-90 -75 c-11 -21 -30
-37 -30 -25 0 8 30 44 37 44 2 0 -1 -9 -7 -19z m-780 -58 c0 -57 -5 -53 -13
10 -4 31 -3 46 3 42 6 -3 10 -27 10 -52z m505 5 c17 -10 26 -18 22 -18 -11 0
-107 49 -107 55 0 6 46 -14 85 -37z m515 39 c0 -2 -21 -19 -47 -37 -27 -18
-59 -44 -73 -56 l-25 -23 -30 19 c-17 11 -30 25 -30 32 0 21 59 47 119 52 32
3 61 7 64 10 6 6 22 8 22 3z m-259 -158 c169 -78 208 -99 161 -85 -28 9 -349
164 -341 165 4 1 85 -35 180 -80z m254 -149 c8 -16 15 -35 15 -42 0 -7 -7 1
-16 17 -8 17 -25 41 -37 54 l-22 24 22 -12 c13 -6 30 -25 38 -41z m114 5 c0
-5 -4 -3 -9 5 -5 8 -9 22 -9 30 0 16 17 -16 18 -35z m-752 -42 c-2 -16 -4 -5
-4 22 0 28 2 40 4 28 2 -13 2 -35 0 -50z m-1840 -45 c-3 -8 -6 -5 -6 6 -1 11
2 17 5 13 3 -3 4 -12 1 -19z m2581 0 c45 -49 32 -128 -21 -128 -50 0 -98 98
-67 135 18 22 63 18 88 -7z m-2608 -138 c-13 -61 -25 -108 -27 -106 -3 2 6 54
18 115 13 61 25 108 28 106 2 -3 -6 -54 -19 -115z m-376 -156 c-19 -44 -41
-90 -46 -104 l-11 -25 -8 34 c-7 32 -2 42 44 107 29 40 53 71 55 69 1 -1 -14
-38 -34 -81z m343 14 c-3 -8 -6 -5 -6 6 -1 11 2 17 5 13 3 -3 4 -12 1 -19z
m161 -249 c-29 -123 -54 -217 -56 -209 -1 9 18 101 43 205 53 226 56 237 62
231 2 -2 -20 -105 -49 -227z m-197 194 c-12 -20 -14 -14 -5 12 4 9 9 14 11 11
3 -2 0 -13 -6 -23z m26 5 c-3 -8 -6 -5 -6 6 -1 11 2 17 5 13 3 -3 4 -12 1 -19z
m3642 -293 c0 -5 -13 15 -29 45 -16 30 -29 60 -29 65 0 6 13 -15 29 -45 16
-30 29 -59 29 -65z m-240 -155 c0 -14 -9 3 -19 37 -29 97 -32 136 -5 58 13
-38 24 -81 24 -95z m259 115 c-3 -3 -9 2 -12 12 -6 14 -5 15 5 6 7 -7 10 -15
7 -18z m-987 -66 c-9 -22 -10 -22 -10 -3 -1 11 2 24 6 27 12 12 14 0 4 -24z
m-3129 -124 l6 -120 -14 70 c-14 77 -18 158 -7 168 3 4 7 6 8 5 1 -2 5 -57 7
-123z m565 73 c-3 -8 -6 -5 -6 6 -1 11 2 17 5 13 3 -3 4 -12 1 -19z m-10 -50
c-3 -8 -6 -5 -6 6 -1 11 2 17 5 13 3 -3 4 -12 1 -19z m2509 3 c-10 -11 -24
-39 -31 -63 l-14 -43 0 36 c-1 36 29 89 51 89 6 0 3 -9 -6 -19z m801 -3 c-3
-8 -6 -5 -6 6 -1 11 2 17 5 13 3 -3 4 -12 1 -19z m-739 -49 c4 -32 -20 -64
-42 -56 -23 9 -16 43 8 39 15 -3 18 1 14 23 -4 16 -1 24 6 22 6 -2 12 -14 14
-28z m-2581 -11 c-3 -7 -5 -2 -5 12 0 14 2 19 5 13 2 -7 2 -19 0 -25z m-10
-65 c-3 -10 -5 -4 -5 12 0 17 2 24 5 18 2 -7 2 -21 0 -30z m3709 -8 c9 -39 0
-30 -15 15 -6 19 -7 30 -2 25 5 -6 13 -23 17 -40z m-4297 -167 c1 -5 -3 -8 -9
-8 -5 0 -10 12 -9 28 0 24 1 25 9 7 5 -11 9 -23 9 -27z m3998 -70 c-3 -8 -6
-5 -6 6 -1 11 2 17 5 13 3 -3 4 -12 1 -19z m-3760 -91 c7 -25 7 -36 -4 -45
-11 -10 -13 -9 -13 10 0 13 -3 33 -6 46 -10 35 12 26 23 -11z m3772 -15 c0
-24 -1 -25 -9 -7 -12 28 -12 47 0 40 6 -3 10 -18 9 -33z m-2498 -161 c10 -158
10 -164 -9 -184 -20 -20 -20 -20 -27 46 -4 36 -4 85 0 109 6 41 12 109 14 172
2 68 11 9 22 -143z m1620 54 l-9 -40 -1 51 c-1 28 2 54 7 58 11 12 14 -25 3
-69z m-2594 -17 c-3 -8 -6 -5 -6 6 -1 11 2 17 5 13 3 -3 4 -12 1 -19z m3470
-45 c-3 -10 -5 -4 -5 12 0 17 2 24 5 18 2 -7 2 -21 0 -30z m-988 -99 c-16 -17
-24 -37 -24 -64 0 -21 -3 -33 -7 -27 -16 24 -8 68 17 92 32 33 45 32 14 -1z
m65 -62 c-10 -30 -42 -41 -55 -20 -14 22 -10 28 16 28 16 0 25 6 25 16 0 10
-6 14 -15 11 -8 -4 -17 -2 -20 4 -4 5 4 13 17 18 30 11 46 -17 32 -57z m918 6
c-6 -6 -7 0 -4 19 5 21 7 23 10 9 2 -10 0 -22 -6 -28z m-3227 -83 c25 -60 52
-120 61 -132 8 -13 10 -23 4 -23 -5 0 -10 5 -10 10 0 6 -6 10 -14 10 -8 0 -18
9 -21 20 -3 11 -11 20 -16 20 -6 0 -7 5 -4 10 3 6 2 10 -3 10 -5 0 -19 40 -30
88 -35 140 -31 139 33 -13z m-238 13 c-3 -7 -5 -2 -5 12 0 14 2 19 5 13 2 -7
2 -19 0 -25z m3352 -40 c0 -35 -2 -39 -9 -21 -8 19 -3 63 6 63 2 0 4 -19 3
-42z m-824 -70 c-9 -107 -21 -121 -17 -20 3 80 7 102 17 102 4 0 3 -37 0 -82z
m-2538 50 c-3 -8 -6 -5 -6 6 -1 11 2 17 5 13 3 -3 4 -12 1 -19z m3380 -220
c-3 -8 -6 -5 -6 6 -1 11 2 17 5 13 3 -3 4 -12 1 -19z m0 -40 c-3 -8 -6 -5 -6
6 -1 11 2 17 5 13 3 -3 4 -12 1 -19z m-875 -250 c-2 -58 -9 -98 -15 -98 -11 0
-4 171 8 191 11 17 12 8 7 -93z m-2372 29 c0 -2 -19 -18 -42 -36 l-43 -32 39
35 c37 34 46 40 46 33z m475 -170 c17 -15 65 -53 108 -83 42 -31 77 -57 77
-59 0 -7 -134 78 -190 121 -75 57 -104 90 -96 109 5 13 12 8 38 -22 18 -20 47
-50 63 -66z m-615 40 c0 -2 -10 -12 -22 -23 l-23 -19 19 23 c18 21 26 27 26
19z m2476 -58 c-14 -17 -26 -41 -26 -55 0 -13 -4 -24 -10 -24 -13 0 -13 12 1
47 12 32 37 63 51 63 6 0 -2 -14 -16 -31z m71 -46 c-3 -26 -13 -54 -25 -65
l-20 -20 -18 27 c-15 23 -15 28 -3 36 8 5 22 9 32 9 9 0 17 5 17 11 0 6 -7 9
-15 6 -25 -10 -29 15 -6 35 32 25 44 13 38 -39z m-2607 28 c-5 -11 -15 -23
-21 -27 -6 -3 -3 5 6 20 20 30 30 35 15 7z m540 -76 l23 -24 -13 -143 c-7 -79
-15 -235 -17 -348 l-5 -205 36 -33 c49 -45 50 -95 0 -57 -24 18 -35 19 -30 3
3 -7 7 -33 11 -57 l6 -44 -28 19 c-15 10 -80 51 -143 92 -63 40 -117 78 -119
84 -2 5 -23 31 -47 56 -24 25 -44 52 -44 59 0 7 -4 13 -10 13 -16 0 -11 26 11
54 11 14 17 30 14 36 -3 5 -1 10 4 10 6 0 11 6 11 13 0 7 9 19 20 27 11 8 20
22 20 32 0 10 5 18 10 18 6 0 10 9 10 20 0 11 5 20 10 20 6 0 10 9 10 20 0 11
3 20 8 20 4 0 20 29 37 65 16 36 33 65 37 65 4 0 8 9 8 20 0 11 5 20 10 20 6
0 10 6 10 13 0 7 9 19 20 27 11 8 20 22 20 32 0 10 5 18 10 18 6 0 10 5 10 12
0 12 49 68 60 68 4 0 17 -11 30 -25z m131 -111 c38 -29 61 -55 65 -72 3 -15 9
-38 13 -52 5 -14 6 -72 3 -129 -4 -97 -8 -110 -51 -206 l-47 -102 -32 66 c-29
62 -32 77 -41 225 -10 171 1 316 24 316 4 0 33 -20 66 -46z m1899 21 c0 -33
-37 -234 -65 -351 -71 -297 -86 -360 -101 -410 l-15 -52 -71 30 c-40 16 -75
32 -78 35 -10 11 55 -8 92 -27 l37 -19 10 37 c86 326 156 626 166 710 4 28 11
52 16 52 5 0 9 -2 9 -5z m118 -172 c16 -57 26 -100 21 -97 -10 6 -43 110 -54
169 -11 64 1 37 33 -72z m-388 72 c0 -3 -9 -24 -21 -46 -23 -45 -36 -48 -19
-4 6 15 9 29 7 31 -2 2 -27 -5 -55 -16 -29 -11 -60 -20 -70 -20 -9 1 19 14 63
30 85 31 95 33 95 25z m1163 -127 c-2 -3 10 -17 26 -31 17 -14 28 -27 25 -30
-3 -2 9 -16 25 -30 16 -13 27 -27 24 -30 -3 -3 4 -11 14 -18 18 -11 19 -16 7
-93 -12 -81 -30 -168 -40 -195 -6 -17 -34 33 -54 94 -7 22 -32 83 -55 135 -53
116 -74 208 -53 224 8 6 14 21 13 34 -1 20 2 18 34 -15 20 -21 35 -41 34 -45z
m-2493 3 c84 -52 84 -53 66 -169 l-8 -53 36 21 c20 11 49 20 64 20 34 0 110
-54 123 -87 15 -39 -24 -356 -54 -438 -40 -110 -149 -344 -160 -344 -4 -1 -25
10 -47 24 -38 24 -40 28 -41 78 l-1 52 -11 -46 -12 -46 -95 55 c-186 107 -263
161 -255 180 15 34 18 65 7 58 -6 -4 -14 -23 -18 -42 -5 -28 -2 -38 12 -50 45
-34 186 -124 264 -169 47 -27 87 -50 89 -51 6 -5 -39 -183 -71 -279 -35 -104
-61 -160 -92 -194 -14 -15 -17 -25 -9 -28 8 -3 2 -27 -18 -75 -35 -85 -44 -97
-35 -44 l8 40 -42 -38 c-55 -50 -162 -118 -234 -150 -86 -38 -82 -31 12 19 45
24 108 64 140 89 74 59 162 140 162 150 0 4 -33 -22 -72 -59 -91 -84 -165
-135 -271 -186 -89 -42 -162 -62 -139 -38 14 16 16 49 2 49 -5 0 -10 15 -10
33 0 18 -4 37 -9 43 -5 5 -11 34 -14 64 -11 134 -40 365 -46 367 -10 5 5 481
18 563 19 121 32 180 47 216 l14 34 83 -51 c45 -29 114 -74 153 -100 39 -27
73 -49 76 -49 3 0 4 12 1 28 -3 23 -2 24 6 7 5 -11 7 -30 4 -42 -7 -32 15 -29
27 3 6 14 22 87 35 162 23 123 31 145 82 241 32 58 77 145 101 194 24 48 47
87 51 86 3 0 40 -22 81 -48z m2446 -211 c95 -205 110 -242 118 -283 4 -20 11
-37 17 -37 6 0 7 -4 4 -10 -3 -5 -1 -19 6 -31 12 -23 -3 -66 -29 -82 -7 -5
-10 -12 -7 -17 3 -4 -2 -10 -10 -14 -8 -3 -15 -11 -15 -18 0 -33 -277 -268
-316 -268 -18 0 -102 373 -122 549 -8 71 -8 74 20 115 16 22 50 71 75 109 25
37 47 66 49 64 2 -2 -10 -68 -27 -146 -16 -79 -28 -146 -26 -148 2 -2 21 58
42 133 32 114 43 142 71 169 18 18 40 48 50 66 l17 34 10 -25 c6 -14 38 -86
73 -160z m-3755 33 c-12 -20 -14 -14 -5 12 4 9 9 14 11 11 3 -2 0 -13 -6 -23z
m1779 -67 c-23 -42 -44 -76 -46 -76 -3 0 14 36 37 80 23 45 44 79 46 76 3 -2
-14 -38 -37 -80z m-52 -5 c11 -6 4 -28 -33 -97 -25 -49 -44 -78 -41 -64 22
104 41 170 50 170 6 0 17 -4 24 -9z m1432 -116 c0 -8 -4 -15 -10 -15 -5 0 -10
7 -10 15 0 8 5 15 10 15 6 0 10 -7 10 -15z m-2160 -15 c0 -5 -5 -10 -11 -10
-5 0 -7 5 -4 10 3 6 8 10 11 10 2 0 4 -4 4 -10z m686 -47 c-14 -26 -25 -45
-26 -41 0 12 43 98 48 94 2 -2 -8 -26 -22 -53z m1621 -170 c-7 -68 -10 -128
-6 -135 12 -19 27 58 35 175 4 59 10 110 14 112 4 3 11 -17 15 -43 4 -26 24
-103 45 -172 68 -224 79 -264 98 -351 l18 -87 -61 -35 c-34 -20 -109 -71 -166
-113 -57 -43 -144 -102 -194 -131 l-90 -54 -9 53 c-5 29 -17 58 -25 65 -12 9
-13 16 -5 29 7 13 5 36 -9 87 -16 60 -17 76 -7 107 8 23 10 68 7 121 -4 66 1
109 20 199 14 63 28 124 33 135 7 18 9 18 21 -10 7 -16 14 -32 15 -33 5 -8
162 131 209 185 60 69 61 67 42 -104z m-1681 31 c-24 -61 -88 -197 -83 -178 5
23 100 244 103 241 2 -2 -7 -30 -20 -63z m-1806 -41 c-11 -17 -11 -17 -6 0 3
10 6 24 7 30 0 9 2 9 5 0 3 -7 0 -20 -6 -30z m2637 -42 c48 -21 112 -46 141
-56 63 -20 71 -36 65 -120 -2 -33 -5 -77 -6 -97 -1 -21 -3 -38 -5 -38 -2 0
-16 7 -32 15 -17 9 -30 14 -30 12 0 -1 29 -32 65 -67 l65 -65 -5 75 c-3 41
-10 108 -15 148 -15 111 -18 104 43 97 l52 -7 19 67 c22 77 32 71 42 -25 3
-36 17 -119 30 -185 14 -66 33 -181 44 -255 32 -218 50 -334 55 -347 2 -7 -9
-14 -28 -18 -208 -35 -349 -42 -484 -24 -60 8 -115 13 -123 12 -8 -1 -17 3
-21 8 -3 6 -15 12 -25 13 -29 4 -34 89 -12 221 10 61 20 116 23 124 3 8 10 54
15 103 5 53 17 107 29 132 12 23 21 52 21 64 0 21 1 22 24 7 14 -9 39 -15 57
-13 51 5 46 33 -14 92 -36 35 -57 67 -69 102 -19 54 -21 64 -13 64 2 0 44 -17
92 -39z m-2647 -15 c0 -3 -4 -8 -10 -11 -5 -3 -10 -1 -10 4 0 6 5 11 10 11 6
0 10 -2 10 -4z m-10 -30 c0 -3 -4 -8 -10 -11 -5 -3 -10 -1 -10 4 0 6 5 11 10
11 6 0 10 -2 10 -4z m-15 -36 c3 -5 1 -10 -4 -10 -6 0 -11 5 -11 10 0 6 2 10
4 10 3 0 8 -4 11 -10z m1731 -87 c-8 -15 -15 -25 -16 -21 0 12 23 58 27 54 3
-2 -2 -17 -11 -33z m-1746 23 c0 -3 -4 -8 -10 -11 -5 -3 -10 -1 -10 4 0 6 5
11 10 11 6 0 10 -2 10 -4z m1685 -175 c-25 -62 -56 -150 -69 -194 -23 -79 -24
-80 -28 -42 l-3 40 -27 -40 c-16 -22 -28 -35 -28 -29 0 6 9 23 20 37 20 25
134 251 160 315 7 18 14 31 16 29 3 -2 -16 -55 -41 -116z m-85 -106 c0 -5 -18
-41 -40 -79 -22 -38 -43 -80 -46 -93 -12 -47 -24 -7 -15 48 6 29 13 82 16 117
l7 62 39 -22 c21 -12 39 -27 39 -33z m-1673 3 c-3 -7 -5 -2 -5 12 0 14 2 19 5
13 2 -7 2 -19 0 -25z m-10 -60 c-3 -7 -5 -2 -5 12 0 14 2 19 5 13 2 -7 2 -19
0 -25z m-6 -121 c2 -69 5 -76 28 -54 12 10 13 9 7 -7 -3 -10 -11 -39 -18 -63
-17 -69 -28 -33 -28 91 0 118 8 143 11 33z m2429 -177 c0 -5 -4 -10 -10 -10
-5 0 -10 5 -10 10 0 6 5 10 10 10 6 0 10 -4 10 -10z m-1652 -407 c-26 -2 -71
-2 -100 0 -29 2 -8 3 47 3 55 0 79 -1 53 -3z"/>
<path d="M9102 10260 c0 -14 2 -19 5 -12 2 6 2 18 0 25 -3 6 -5 1 -5 -13z"/>
<path d="M9561 8946 c10 -9 69 -36 69 -32 0 6 -55 36 -66 36 -4 0 -5 -2 -3 -4z"/>
<path d="M9470 8695 c0 -26 -7 -60 -16 -76 -8 -17 -13 -33 -10 -36 9 -10 34
53 41 105 5 35 3 52 -4 52 -6 0 -11 -19 -11 -45z"/>
<path d="M9408 8563 c7 -3 16 -2 19 1 4 3 -2 6 -13 5 -11 0 -14 -3 -6 -6z"/>
<path d="M10158 8485 c-2 -19 -1 -35 3 -35 10 0 29 57 22 64 -14 13 -21 4 -25
-29z"/>
<path d="M10011 8438 c0 -26 3 -49 7 -52 4 -2 6 12 4 32 -6 62 -10 69 -11 20z"/>
<path d="M10313 8335 c0 -33 2 -45 4 -27 2 18 2 45 0 60 -2 15 -4 0 -4 -33z"/>
<path d="M10088 8373 c7 -3 16 -2 19 1 4 3 -2 6 -13 5 -11 0 -14 -3 -6 -6z"/>
<path d="M10349 8192 c6 -12 16 -24 22 -28 8 -4 8 -1 0 14 -6 12 -16 24 -22
28 -8 4 -8 1 0 -14z"/>
<path d="M9400 7831 c19 -16 53 -40 75 -52 59 -32 21 2 -50 46 -56 34 -58 34
-25 6z"/>
<path d="M9520 7756 c0 -3 9 -10 20 -16 11 -6 20 -8 20 -6 0 3 -9 10 -20 16
-11 6 -20 8 -20 6z"/>
<path d="M10059 7163 c34 -45 51 -60 51 -46 0 5 -19 27 -42 48 l-42 40 33 -42z"/>
<path d="M9805 7140 c-26 -28 -15 -31 12 -3 12 13 19 23 14 23 -4 0 -16 -9
-26 -20z"/>
<path d="M9730 6996 c0 -2 8 -10 18 -17 15 -13 16 -12 3 4 -13 16 -21 21 -21
13z"/>
<path d="M10430 6020 c0 -5 5 -10 11 -10 5 0 7 5 4 10 -3 6 -8 10 -11 10 -2 0
-4 -4 -4 -10z"/>
<path d="M10405 6010 c3 -5 8 -10 11 -10 2 0 4 5 4 10 0 6 -5 10 -11 10 -5 0
-7 -4 -4 -10z"/>
</g>
</svg>
